<svg width="612" height="292" viewBox="0 0 612 292" fill="none" xmlns="http://www.w3.org/2000/svg">
<path d="M340.196 24.7281C340.08 24.475 337.343 18.3969 331.296 12.35C323.205 4.27187 313.008 0 301.758 0C290.508 0 280.312 4.27187 272.23 12.35C266.184 18.3969 263.446 24.475 263.321 24.7281C263.109 25.2081 263 25.727 263 26.2516C263 26.7762 263.109 27.295 263.321 27.775C263.437 28.0313 266.174 34.1063 272.224 40.1531C280.312 48.2313 290.508 52.5 301.758 52.5C313.008 52.5 323.205 48.2313 331.283 40.1531C337.333 34.1063 340.071 28.0313 340.186 27.775C340.399 27.2957 340.51 26.7772 340.512 26.2526C340.514 25.7279 340.406 25.2088 340.196 24.7281ZM325.802 35.0406C319.093 41.6469 311.005 45 301.758 45C292.512 45 284.424 41.6469 277.724 35.0375C275.088 32.4288 272.82 29.4724 270.984 26.25C272.82 23.0289 275.088 20.0736 277.724 17.4656C284.427 10.8531 292.512 7.5 301.758 7.5C311.005 7.5 319.089 10.8531 325.793 17.4656C328.429 20.0733 330.697 23.0287 332.533 26.25C330.696 29.4722 328.429 32.4286 325.793 35.0375L325.802 35.0406ZM301.758 12.5C299.039 12.5 296.38 13.3064 294.119 14.8173C291.858 16.3282 290.096 18.4756 289.055 20.9881C288.014 23.5006 287.742 26.2653 288.273 28.9325C288.803 31.5997 290.113 34.0497 292.036 35.9727C293.959 37.8957 296.409 39.2053 299.076 39.7358C301.743 40.2663 304.508 39.994 307.02 38.9533C309.533 37.9126 311.68 36.1503 313.191 33.8891C314.702 31.6279 315.508 28.9695 315.508 26.25C315.504 22.6045 314.054 19.1096 311.476 16.5318C308.899 13.9541 305.404 12.5041 301.758 12.5ZM301.758 32.5C300.522 32.5 299.314 32.1334 298.286 31.4467C297.258 30.7599 296.457 29.7838 295.984 28.6418C295.511 27.4997 295.387 26.2431 295.628 25.0307C295.87 23.8183 296.465 22.7047 297.339 21.8306C298.213 20.9565 299.327 20.3612 300.539 20.1201C301.751 19.8789 303.008 20.0027 304.15 20.4758C305.292 20.9488 306.268 21.7499 306.955 22.7777C307.642 23.8055 308.008 25.0139 308.008 26.25C308.008 27.9076 307.35 29.4973 306.178 30.6694C305.006 31.8415 303.416 32.5 301.758 32.5Z" fill="#737370"/>
<rect x="35" y="271" width="529" height="21" fill="#006CA9"/>
<rect x="300" y="97" width="1" height="174" fill="#006CA9" stroke="#006CA9" stroke-width="10"/>
<rect x="181" y="249" width="240" height="15" fill="#82D1F5"/>
<rect x="61" y="227" width="480" height="15" fill="#82D1F5"/>
<rect x="21" y="205" width="560" height="15" fill="#82D1F5"/>
<rect x="140" y="183" width="320" height="15" fill="#82D1F5"/>
<rect x="101" y="161" width="400" height="15" fill="#82D1F5"/>
<rect x="220" y="117" width="160" height="15" fill="#82D1F5"/>
<rect x="261" y="139" width="80" height="15" fill="#82D1F5"/>
<path d="M23.5568 82.2727C23.5568 80.125 23.8352 78.1506 24.392 76.3494C24.9545 74.5426 25.7557 72.8807 26.7955 71.3636H28.5682C28.1591 71.9261 27.7756 72.6193 27.4176 73.4432C27.0653 74.2614 26.7557 75.1619 26.4886 76.1449C26.2216 77.1222 26.0114 78.1335 25.858 79.179C25.7102 80.2244 25.6364 81.2557 25.6364 82.2727C25.6364 83.625 25.767 84.9972 26.0284 86.3892C26.2898 87.7812 26.642 89.0739 27.0852 90.267C27.5284 91.4602 28.0227 92.4318 28.5682 93.1818H26.7955C25.7557 91.6648 24.9545 90.0057 24.392 88.2045C23.8352 86.3977 23.5568 84.4205 23.5568 82.2727ZM37.3999 91.2386C36.2749 91.2386 35.272 91.0455 34.3913 90.6591C33.5163 90.2727 32.8203 89.7358 32.3033 89.0483C31.7919 88.3551 31.5135 87.5511 31.468 86.6364H33.6158C33.6612 87.1989 33.8544 87.6847 34.1953 88.0938C34.5362 88.4972 34.9822 88.8097 35.5334 89.0312C36.0845 89.2528 36.6953 89.3636 37.3658 89.3636C38.1158 89.3636 38.7805 89.233 39.3601 88.9716C39.9396 88.7102 40.3942 88.3466 40.7237 87.8807C41.0533 87.4148 41.218 86.875 41.218 86.2614C41.218 85.6193 41.0589 85.054 40.7408 84.5653C40.4226 84.071 39.9567 83.6847 39.343 83.4062C38.7294 83.1278 37.9794 82.9886 37.093 82.9886H35.6953V81.1136H37.093C37.7862 81.1136 38.3942 80.9886 38.9169 80.7386C39.4453 80.4886 39.8572 80.1364 40.1527 79.6818C40.4538 79.2273 40.6044 78.6932 40.6044 78.0795C40.6044 77.4886 40.4737 76.9744 40.2124 76.5369C39.951 76.0994 39.5817 75.7585 39.1044 75.5142C38.6328 75.2699 38.076 75.1477 37.4339 75.1477C36.8317 75.1477 36.2635 75.2585 35.7294 75.4801C35.201 75.696 34.7692 76.0114 34.4339 76.4261C34.0987 76.8352 33.9169 77.3295 33.8885 77.9091H31.843C31.8771 76.9943 32.1527 76.1932 32.6697 75.5057C33.1868 74.8125 33.8629 74.2727 34.6982 73.8864C35.5391 73.5 36.4624 73.3068 37.468 73.3068C38.5476 73.3068 39.4737 73.5256 40.2464 73.9631C41.0192 74.3949 41.6129 74.9659 42.0277 75.6761C42.4425 76.3864 42.6499 77.1534 42.6499 77.9773C42.6499 78.9602 42.3913 79.7983 41.8743 80.4915C41.3629 81.1847 40.6669 81.6648 39.7862 81.9318V82.0682C40.8885 82.25 41.7493 82.7187 42.3686 83.4744C42.9879 84.2244 43.2976 85.1534 43.2976 86.2614C43.2976 87.2102 43.0391 88.0625 42.522 88.8182C42.0107 89.5682 41.3118 90.1591 40.4254 90.5909C39.5391 91.0227 38.5305 91.2386 37.3999 91.2386ZM49.2784 88.6136L49.142 89.5341C49.0455 90.1818 48.8977 90.875 48.6989 91.6136C48.5057 92.3523 48.304 93.0483 48.0938 93.7017C47.8835 94.3551 47.7102 94.875 47.5739 95.2614H46.0398C46.1136 94.8977 46.2102 94.4176 46.3295 93.821C46.4489 93.2244 46.5682 92.5568 46.6875 91.8182C46.8125 91.0852 46.9148 90.3352 46.9943 89.5682L47.0966 88.6136H49.2784ZM65.5163 91.2386C64.8004 91.2273 64.0845 91.0909 63.3686 90.8295C62.6527 90.5682 61.9993 90.1278 61.4084 89.5085C60.8175 88.8835 60.343 88.0398 59.9851 86.9773C59.6271 85.9091 59.4482 84.5682 59.4482 82.9545C59.4482 81.4091 59.593 80.0398 59.8828 78.8466C60.1726 77.6477 60.593 76.6392 61.1442 75.821C61.6953 74.9972 62.3601 74.3722 63.1385 73.946C63.9226 73.5199 64.8061 73.3068 65.7891 73.3068C66.7663 73.3068 67.6357 73.5028 68.397 73.8949C69.1641 74.2812 69.7891 74.821 70.272 75.5142C70.755 76.2074 71.0675 77.0057 71.2095 77.9091H69.13C68.9368 77.125 68.5618 76.4744 68.005 75.9574C67.4482 75.4403 66.7095 75.1818 65.7891 75.1818C64.4368 75.1818 63.3714 75.7699 62.593 76.946C61.8203 78.1222 61.4311 79.7727 61.4254 81.8977H61.5618C61.88 81.4148 62.2578 81.0028 62.6953 80.6619C63.1385 80.3153 63.6271 80.0483 64.1612 79.8608C64.6953 79.6733 65.2607 79.5795 65.8572 79.5795C66.8572 79.5795 67.772 79.8295 68.6016 80.3295C69.4311 80.8239 70.0959 81.5085 70.5959 82.3835C71.0959 83.2528 71.3459 84.25 71.3459 85.375C71.3459 86.4545 71.1044 87.4432 70.6214 88.3409C70.1385 89.233 69.4595 89.9432 68.5845 90.4716C67.7152 90.9943 66.6925 91.25 65.5163 91.2386ZM65.5163 89.3636C66.2322 89.3636 66.8743 89.1847 67.4425 88.8267C68.0163 88.4687 68.468 87.9886 68.7976 87.3864C69.1328 86.7841 69.3004 86.1136 69.3004 85.375C69.3004 84.6534 69.1385 83.9972 68.8146 83.4062C68.4964 82.8097 68.0561 82.3352 67.4936 81.983C66.9368 81.6307 66.3004 81.4545 65.5845 81.4545C65.0447 81.4545 64.5419 81.5625 64.076 81.7784C63.6101 81.9886 63.201 82.2784 62.8487 82.6477C62.5021 83.017 62.2294 83.4403 62.0305 83.9176C61.8317 84.3892 61.7322 84.8864 61.7322 85.4091C61.7322 86.1023 61.8942 86.75 62.218 87.3523C62.5476 87.9545 62.9964 88.4403 63.5646 88.8097C64.1385 89.179 64.7891 89.3636 65.5163 89.3636ZM76.9112 88.6136L76.7749 89.5341C76.6783 90.1818 76.5305 90.875 76.3317 91.6136C76.1385 92.3523 75.9368 93.0483 75.7266 93.7017C75.5163 94.3551 75.343 94.875 75.2067 95.2614H73.6726C73.7464 94.8977 73.843 94.4176 73.9624 93.821C74.0817 93.2244 74.201 92.5568 74.3203 91.8182C74.4453 91.0852 74.5476 90.3352 74.6271 89.5682L74.7294 88.6136H76.9112ZM87.8991 91L95.706 75.5568V75.4205H86.706V73.5455H97.8878V75.5227L90.1151 91H87.8991ZM101.099 88.6136L100.962 89.5341C100.866 90.1818 100.718 90.875 100.519 91.6136C100.326 92.3523 100.124 93.0483 99.9141 93.7017C99.7038 94.3551 99.5305 94.875 99.3942 95.2614H97.8601C97.9339 94.8977 98.0305 94.4176 98.1499 93.821C98.2692 93.2244 98.3885 92.5568 98.5078 91.8182C98.6328 91.0852 98.7351 90.3352 98.8146 89.5682L98.9169 88.6136H101.099ZM111.132 87.4205V85.6818L118.803 73.5455H120.064V76.2386H119.212L113.416 85.4091V85.5455H123.746V87.4205H111.132ZM119.348 91V86.892V86.0824V73.5455H121.359V91H119.348ZM129.153 88.6136L129.017 89.5341C128.92 90.1818 128.773 90.875 128.574 91.6136C128.381 92.3523 128.179 93.0483 127.969 93.7017C127.759 94.3551 127.585 94.875 127.449 95.2614H125.915C125.989 94.8977 126.085 94.4176 126.205 93.821C126.324 93.2244 126.443 92.5568 126.562 91.8182C126.688 91.0852 126.79 90.3352 126.869 89.5682L126.972 88.6136H129.153ZM145.05 91.2386C144.05 91.2386 143.15 91.0398 142.349 90.642C141.548 90.2443 140.906 89.6989 140.423 89.0057C139.94 88.3125 139.675 87.5227 139.63 86.6364H141.675C141.755 87.4261 142.113 88.0795 142.749 88.5966C143.391 89.108 144.158 89.3636 145.05 89.3636C145.766 89.3636 146.403 89.196 146.96 88.8608C147.522 88.5256 147.962 88.0653 148.281 87.4801C148.604 86.8892 148.766 86.2216 148.766 85.4773C148.766 84.7159 148.599 84.0369 148.263 83.4403C147.934 82.8381 147.479 82.3636 146.9 82.017C146.32 81.6705 145.658 81.4943 144.914 81.4886C144.38 81.483 143.832 81.5653 143.269 81.7358C142.707 81.9006 142.244 82.1136 141.88 82.375L139.903 82.1364L140.96 73.5455H150.028V75.4205H142.732L142.119 80.5682H142.221C142.579 80.2841 143.028 80.0483 143.567 79.8608C144.107 79.6733 144.67 79.5795 145.255 79.5795C146.323 79.5795 147.275 79.8352 148.11 80.3466C148.951 80.8523 149.61 81.5455 150.087 82.4261C150.57 83.3068 150.812 84.3125 150.812 85.4432C150.812 86.5568 150.562 87.5511 150.062 88.4261C149.567 89.2955 148.886 89.983 148.016 90.4886C147.147 90.9886 146.158 91.2386 145.05 91.2386ZM156.575 88.6136L156.439 89.5341C156.342 90.1818 156.195 90.875 155.996 91.6136C155.803 92.3523 155.601 93.0483 155.391 93.7017C155.18 94.3551 155.007 94.875 154.871 95.2614H153.337C153.411 94.8977 153.507 94.4176 153.626 93.821C153.746 93.2244 153.865 92.5568 153.984 91.8182C154.109 91.0852 154.212 90.3352 154.291 89.5682L154.393 88.6136H156.575ZM173.154 73.5455V91H171.04V75.7614H170.938L166.677 78.5909V76.4432L171.04 73.5455H173.154ZM180.177 88.6136L180.04 89.5341C179.944 90.1818 179.796 90.875 179.597 91.6136C179.404 92.3523 179.202 93.0483 178.992 93.7017C178.782 94.3551 178.609 94.875 178.472 95.2614H176.938C177.012 94.8977 177.109 94.4176 177.228 93.821C177.347 93.2244 177.467 92.5568 177.586 91.8182C177.711 91.0852 177.813 90.3352 177.893 89.5682L177.995 88.6136H180.177ZM190.619 91V89.4659L196.381 83.1591C197.057 82.4205 197.614 81.7784 198.051 81.233C198.489 80.6818 198.813 80.1648 199.023 79.6818C199.239 79.1932 199.347 78.6818 199.347 78.1477C199.347 77.5341 199.199 77.0028 198.903 76.554C198.614 76.1051 198.216 75.7585 197.71 75.5142C197.205 75.2699 196.636 75.1477 196.006 75.1477C195.335 75.1477 194.75 75.2869 194.25 75.5653C193.756 75.8381 193.372 76.2216 193.099 76.7159C192.832 77.2102 192.699 77.7898 192.699 78.4545H190.688C190.688 77.4318 190.923 76.5341 191.395 75.7614C191.866 74.9886 192.509 74.3864 193.321 73.9545C194.139 73.5227 195.057 73.3068 196.074 73.3068C197.097 73.3068 198.003 73.5227 198.793 73.9545C199.582 74.3864 200.202 74.9687 200.651 75.7017C201.099 76.4347 201.324 77.25 201.324 78.1477C201.324 78.7898 201.207 79.4176 200.974 80.0312C200.747 80.6392 200.349 81.3182 199.781 82.0682C199.219 82.8125 198.438 83.7216 197.438 84.7955L193.517 88.9886V89.125H201.631V91H190.619ZM209.48 82.2727C209.48 84.4205 209.199 86.3977 208.636 88.2045C208.08 90.0057 207.281 91.6648 206.241 93.1818H204.469C204.878 92.6193 205.259 91.9261 205.611 91.1023C205.969 90.2841 206.281 89.3864 206.548 88.4091C206.815 87.4261 207.023 86.4119 207.17 85.3665C207.324 84.3153 207.401 83.2841 207.401 82.2727C207.401 80.9205 207.27 79.5483 207.009 78.1562C206.747 76.7642 206.395 75.4716 205.952 74.2784C205.509 73.0852 205.014 72.1136 204.469 71.3636H206.241C207.281 72.8807 208.08 74.5426 208.636 76.3494C209.199 78.1506 209.48 80.125 209.48 82.2727Z" fill="#006CA9"/>
<path d="M166.42 264.199C165.483 264.199 164.647 264.038 163.913 263.716C163.184 263.394 162.604 262.946 162.173 262.374C161.747 261.796 161.515 261.126 161.477 260.364H163.267C163.305 260.832 163.466 261.237 163.75 261.578C164.034 261.914 164.406 262.175 164.865 262.359C165.324 262.544 165.833 262.636 166.392 262.636C167.017 262.636 167.571 262.527 168.054 262.31C168.537 262.092 168.916 261.789 169.19 261.401C169.465 261.012 169.602 260.562 169.602 260.051C169.602 259.516 169.47 259.045 169.205 258.638C168.939 258.226 168.551 257.904 168.04 257.672C167.528 257.44 166.903 257.324 166.165 257.324H165V255.761H166.165C166.742 255.761 167.249 255.657 167.685 255.449C168.125 255.241 168.468 254.947 168.714 254.568C168.965 254.189 169.091 253.744 169.091 253.233C169.091 252.741 168.982 252.312 168.764 251.947C168.546 251.583 168.239 251.299 167.841 251.095C167.448 250.892 166.984 250.79 166.449 250.79C165.947 250.79 165.473 250.882 165.028 251.067C164.588 251.247 164.228 251.509 163.949 251.855C163.67 252.196 163.518 252.608 163.494 253.091H161.79C161.818 252.329 162.048 251.661 162.479 251.088C162.91 250.51 163.473 250.061 164.169 249.739C164.87 249.417 165.639 249.256 166.477 249.256C167.377 249.256 168.149 249.438 168.793 249.803C169.437 250.162 169.931 250.638 170.277 251.23C170.623 251.822 170.795 252.461 170.795 253.148C170.795 253.967 170.58 254.665 170.149 255.243C169.723 255.821 169.143 256.221 168.409 256.443V256.557C169.328 256.708 170.045 257.099 170.561 257.729C171.077 258.354 171.335 259.128 171.335 260.051C171.335 260.842 171.12 261.552 170.689 262.182C170.263 262.807 169.68 263.299 168.942 263.659C168.203 264.019 167.363 264.199 166.42 264.199Z" fill="#737370"/>
<path d="M200.506 129V127.722L205.307 122.466C205.87 121.85 206.334 121.315 206.699 120.861C207.063 120.402 207.333 119.971 207.509 119.568C207.688 119.161 207.778 118.735 207.778 118.29C207.778 117.778 207.655 117.336 207.409 116.962C207.168 116.588 206.836 116.299 206.415 116.095C205.993 115.892 205.52 115.79 204.994 115.79C204.436 115.79 203.948 115.906 203.531 116.138C203.119 116.365 202.8 116.685 202.572 117.097C202.35 117.509 202.239 117.991 202.239 118.545H200.562C200.562 117.693 200.759 116.945 201.152 116.301C201.545 115.657 202.08 115.155 202.757 114.795C203.439 114.436 204.204 114.256 205.051 114.256C205.903 114.256 206.659 114.436 207.317 114.795C207.975 115.155 208.491 115.641 208.865 116.251C209.239 116.862 209.426 117.542 209.426 118.29C209.426 118.825 209.329 119.348 209.135 119.859C208.946 120.366 208.614 120.932 208.141 121.557C207.672 122.177 207.021 122.935 206.188 123.83L202.92 127.324V127.438H209.682V129H200.506Z" fill="#737370"/>
<path d="M246.619 136.455V151H244.858V138.301H244.773L241.222 140.659V138.869L244.858 136.455H246.619Z" fill="#737370"/>
<path d="M396.619 65.4545V80H394.858V67.3011H394.773L391.222 69.6591V67.8693L394.858 65.4545H396.619Z" fill="#FA8F00"/>
<path d="M597.42 170.199C596.483 170.199 595.647 170.038 594.913 169.716C594.184 169.394 593.604 168.946 593.173 168.374C592.747 167.796 592.515 167.126 592.477 166.364H594.267C594.305 166.832 594.466 167.237 594.75 167.578C595.034 167.914 595.406 168.175 595.865 168.359C596.324 168.544 596.833 168.636 597.392 168.636C598.017 168.636 598.571 168.527 599.054 168.31C599.537 168.092 599.916 167.789 600.19 167.401C600.465 167.012 600.602 166.562 600.602 166.051C600.602 165.516 600.47 165.045 600.205 164.638C599.939 164.226 599.551 163.904 599.04 163.672C598.528 163.44 597.903 163.324 597.165 163.324H596V161.761H597.165C597.742 161.761 598.249 161.657 598.685 161.449C599.125 161.241 599.468 160.947 599.714 160.568C599.965 160.189 600.091 159.744 600.091 159.233C600.091 158.741 599.982 158.312 599.764 157.947C599.546 157.583 599.239 157.299 598.841 157.095C598.448 156.892 597.984 156.79 597.449 156.79C596.947 156.79 596.473 156.882 596.028 157.067C595.588 157.247 595.228 157.509 594.949 157.855C594.67 158.196 594.518 158.608 594.494 159.091H592.79C592.818 158.329 593.048 157.661 593.479 157.088C593.91 156.51 594.473 156.061 595.169 155.739C595.87 155.417 596.639 155.256 597.477 155.256C598.377 155.256 599.149 155.438 599.793 155.803C600.437 156.162 600.931 156.638 601.277 157.23C601.623 157.822 601.795 158.461 601.795 159.148C601.795 159.967 601.58 160.665 601.149 161.243C600.723 161.821 600.143 162.221 599.409 162.443V162.557C600.328 162.708 601.045 163.099 601.561 163.729C602.077 164.354 602.335 165.128 602.335 166.051C602.335 166.842 602.12 167.552 601.689 168.182C601.263 168.807 600.68 169.299 599.942 169.659C599.203 170.019 598.363 170.199 597.42 170.199Z" fill="#FA8F00"/>
<path d="M511.506 133V131.722L516.307 126.466C516.87 125.85 517.334 125.315 517.699 124.861C518.063 124.402 518.333 123.971 518.509 123.568C518.688 123.161 518.778 122.735 518.778 122.29C518.778 121.778 518.655 121.336 518.409 120.962C518.168 120.588 517.836 120.299 517.415 120.095C516.993 119.892 516.52 119.79 515.994 119.79C515.436 119.79 514.948 119.906 514.531 120.138C514.119 120.365 513.8 120.685 513.572 121.097C513.35 121.509 513.239 121.991 513.239 122.545H511.562C511.562 121.693 511.759 120.945 512.152 120.301C512.545 119.657 513.08 119.155 513.757 118.795C514.439 118.436 515.204 118.256 516.051 118.256C516.903 118.256 517.659 118.436 518.317 118.795C518.975 119.155 519.491 119.641 519.865 120.251C520.239 120.862 520.426 121.542 520.426 122.29C520.426 122.825 520.329 123.348 520.135 123.859C519.946 124.366 519.614 124.932 519.141 125.557C518.672 126.177 518.021 126.935 517.188 127.83L513.92 131.324V131.438H520.682V133H511.506Z" fill="#FA8F00"/>
<path d="M86.0511 173.199C85.2178 173.199 84.4673 173.033 83.7997 172.702C83.1321 172.37 82.5971 171.916 82.1946 171.338C81.7921 170.76 81.572 170.102 81.5341 169.364H83.2386C83.3049 170.022 83.6032 170.566 84.1335 170.997C84.6686 171.423 85.3078 171.636 86.0511 171.636C86.6477 171.636 87.178 171.497 87.642 171.217C88.1108 170.938 88.4777 170.554 88.7429 170.067C89.0128 169.574 89.1477 169.018 89.1477 168.398C89.1477 167.763 89.008 167.197 88.7287 166.7C88.4541 166.198 88.0753 165.803 87.5923 165.514C87.1094 165.225 86.5578 165.079 85.9375 165.074C85.4924 165.069 85.0355 165.138 84.5668 165.28C84.098 165.417 83.7121 165.595 83.4091 165.812L81.7614 165.614L82.642 158.455H90.1989V160.017H84.1193L83.608 164.307H83.6932C83.9915 164.07 84.3655 163.874 84.8153 163.717C85.2652 163.561 85.7339 163.483 86.2216 163.483C87.1117 163.483 87.9048 163.696 88.6009 164.122C89.3016 164.544 89.8509 165.121 90.2486 165.855C90.651 166.589 90.8523 167.427 90.8523 168.369C90.8523 169.297 90.6439 170.126 90.2273 170.855C89.8153 171.58 89.2472 172.152 88.5227 172.574C87.7983 172.991 86.9744 173.199 86.0511 173.199Z" fill="#737370"/>
<path d="M120.165 192.017V190.568L126.557 180.455H127.608V182.699H126.898L122.068 190.341V190.455H130.676V192.017H120.165ZM127.011 195V191.577V190.902V180.455H128.688V195H127.011Z" fill="#737370"/>
<path d="M1.96023 220L8.46591 207.131V207.017H0.965909V205.455H10.2841V207.102L3.80682 220H1.96023Z" fill="#737370"/>
<path d="M46.3352 239.199C45.7386 239.189 45.142 239.076 44.5455 238.858C43.9489 238.64 43.4044 238.273 42.9119 237.757C42.4195 237.236 42.0241 236.533 41.7259 235.648C41.4276 234.758 41.2784 233.64 41.2784 232.295C41.2784 231.008 41.3991 229.866 41.6406 228.872C41.8821 227.873 42.2325 227.033 42.6918 226.351C43.151 225.664 43.705 225.143 44.3537 224.788C45.0071 224.433 45.7434 224.256 46.5625 224.256C47.3769 224.256 48.1013 224.419 48.7358 224.746C49.375 225.068 49.8958 225.518 50.2983 226.095C50.7008 226.673 50.9612 227.338 51.0795 228.091H49.3466C49.1856 227.437 48.8731 226.895 48.4091 226.464C47.9451 226.034 47.3295 225.818 46.5625 225.818C45.4356 225.818 44.5478 226.308 43.8991 227.288C43.2552 228.268 42.9309 229.644 42.9261 231.415H43.0398C43.3049 231.012 43.6198 230.669 43.9844 230.385C44.3537 230.096 44.7609 229.874 45.206 229.717C45.651 229.561 46.1222 229.483 46.6193 229.483C47.4527 229.483 48.215 229.691 48.9062 230.108C49.5975 230.52 50.1515 231.09 50.5682 231.82C50.9848 232.544 51.1932 233.375 51.1932 234.312C51.1932 235.212 50.992 236.036 50.5895 236.784C50.187 237.527 49.6212 238.119 48.892 238.56C48.1676 238.995 47.3153 239.208 46.3352 239.199ZM46.3352 237.636C46.9318 237.636 47.4669 237.487 47.9403 237.189C48.4186 236.891 48.795 236.491 49.0696 235.989C49.349 235.487 49.4886 234.928 49.4886 234.312C49.4886 233.711 49.3537 233.164 49.0838 232.672C48.8187 232.175 48.4517 231.779 47.983 231.486C47.5189 231.192 46.9886 231.045 46.392 231.045C45.9422 231.045 45.5232 231.135 45.1349 231.315C44.7467 231.491 44.4058 231.732 44.1122 232.04C43.8234 232.348 43.5961 232.7 43.4304 233.098C43.2647 233.491 43.1818 233.905 43.1818 234.341C43.1818 234.919 43.3168 235.458 43.5866 235.96C43.8613 236.462 44.2353 236.867 44.7088 237.175C45.187 237.482 45.7292 237.636 46.3352 237.636Z" fill="#737370"/>
<path d="M378.586 111.414C379.367 112.195 380.633 112.195 381.414 111.414L394.142 98.6863C394.923 97.9052 394.923 96.6389 394.142 95.8579C393.361 95.0768 392.095 95.0768 391.314 95.8579L380 107.172L368.686 95.8579C367.905 95.0768 366.639 95.0768 365.858 95.8579C365.077 96.6389 365.077 97.9052 365.858 98.6863L378.586 111.414ZM378 53L378 110L382 110L382 53L378 53Z" fill="#FA8F00"/>
<path d="M579.586 198.414C580.367 199.195 581.633 199.195 582.414 198.414L595.142 185.686C595.923 184.905 595.923 183.639 595.142 182.858C594.361 182.077 593.095 182.077 592.314 182.858L581 194.172L569.686 182.858C568.905 182.077 567.639 182.077 566.858 182.858C566.077 183.639 566.077 184.905 566.858 185.686L579.586 198.414ZM579 140L579 197L583 197L583 140L579 140Z" fill="#FA8F00"/>
<path d="M499.586 158.414C500.367 159.195 501.633 159.195 502.414 158.414L515.142 145.686C515.923 144.905 515.923 143.639 515.142 142.858C514.361 142.077 513.095 142.077 512.314 142.858L501 154.172L489.686 142.858C488.905 142.077 487.639 142.077 486.858 142.858C486.077 143.639 486.077 144.905 486.858 145.686L499.586 158.414ZM499 100L499 157L503 157L503 100L499 100Z" fill="#FA8F00"/>
</svg>
